<svg xmlns="http://www.w3.org/2000/svg" version="1.1" xmlns:xlink="http://www.w3.org/1999/xlink" width="1000" height="1000"><metadata><rdf:RDF xmlns:rdf="http://www.w3.org/1999/02/22-rdf-syntax-ns#" xmlns:dc="http://purl.org/dc/elements/1.1/"><rdf:Description><dc:creator>RealFaviconGenerator</dc:creator><dc:source>https://realfavicongenerator.net</dc:source></rdf:Description></rdf:RDF></metadata><g clip-path="url(#SvgjsClipPath1321)"><rect width="1000" height="1000" fill="#2d4b6e"></rect><g transform="matrix(2,0,0,2,0,0)"><svg xmlns="http://www.w3.org/2000/svg" version="1.1" width="500" height="500"><path d="M0 0 C165 0 330 0 500 0 C500 165 500 330 500 500 C335 500 170 500 0 500 C0 335 0 170 0 0 Z " fill="#2D4B6E" transform="translate(0,0)"></path><path d="M0 0 C0.73382401 -0.00832352 1.46764801 -0.01664703 2.22370911 -0.02522278 C4.64536875 -0.04928476 7.06675895 -0.05808938 9.48852539 -0.06469727 C11.1747699 -0.07366531 12.86101359 -0.08278719 14.54725647 -0.09205627 C18.0803521 -0.10853763 21.61335305 -0.11624503 25.14648438 -0.11914062 C29.67062548 -0.12452881 34.19387556 -0.16222968 38.71776485 -0.20788479 C42.19994856 -0.23764411 45.68191718 -0.2448639 49.164217 -0.24586678 C50.83198701 -0.25007004 52.49975761 -0.26250875 54.16740227 -0.28338432 C56.50158971 -0.31028208 58.8337048 -0.3054805 61.16796875 -0.29296875 C62.1975621 -0.31522018 62.1975621 -0.31522018 63.24795532 -0.33792114 C67.08193478 -0.27948304 68.56119888 0.23374745 71.5537262 2.71885681 C74.63275106 6.5218489 74.78505924 8.40733008 74.84155273 13.24975586 C74.85761566 14.49865601 74.87367859 15.74755615 74.89022827 17.03430176 C74.90172152 18.40624304 74.91232907 19.77819199 74.92211914 21.15014648 C74.92744282 21.84191483 74.93276649 22.53368317 74.9382515 23.24641418 C74.96499675 26.91483451 74.98435878 30.5832208 74.9987793 34.25170898 C75.01206549 37.27415594 75.03981494 40.2959192 75.08081055 43.31811523 C75.13044405 46.9774588 75.15493864 50.63618693 75.16200638 54.29585266 C75.16867365 55.68319921 75.18377634 57.0705345 75.20789719 58.45768738 C75.38507209 69.27231731 73.75258443 76.98917297 66.37915039 85.09936523 C65.21155224 86.24468911 64.03023457 87.37618014 62.83618164 88.49389648 C62.21235596 89.0977417 61.58853027 89.70158691 60.94580078 90.32373047 C57.32313949 93.80678654 53.60812533 97.16002795 49.76977539 100.40405273 C46.1786678 103.62480669 42.83604789 107.09747496 39.44775391 110.52905273 C35.85342925 114.15234265 32.1782684 117.59536109 28.23461914 120.84155273 C26.43490287 122.50385225 25.0640013 124.31208242 23.64868164 126.30639648 C24.19395508 126.9728418 24.73922852 127.63928711 25.30102539 128.32592773 C26.05512695 129.24760742 26.80922852 130.16928711 27.58618164 131.11889648 C28.82754883 132.63483398 28.82754883 132.63483398 30.09399414 134.18139648 C31.67663501 136.11533837 33.25421692 138.05300629 34.82836914 139.99389648 C40.45881004 146.9236699 46.23567511 153.7164631 52.07055664 160.47387695 C53.63391773 162.28925263 55.18887157 164.11153698 56.74243164 165.93530273 C63.23941568 173.53365907 69.93325423 180.90670466 76.8293457 188.14550781 C82.72539781 194.33818323 88.55021196 200.60134641 94.03686523 207.16210938 C104.76854353 220.85393047 104.76854353 220.85393047 119.96118164 227.55249023 C125.03788577 227.58996688 130.03692596 227.02683349 135.07592773 226.45483398 C145.47701126 225.85473351 155.07006072 233.60568603 162.60961914 239.95874023 C167.40504222 244.40864156 170.65675359 249.52085262 173.64868164 255.30639648 C174.27323242 256.43368164 174.27323242 256.43368164 174.91040039 257.58374023 C180.07414127 268.76278628 179.71421979 285.12326707 175.58618164 296.61889648 C168.16273689 312.39890055 156.79721032 322.27761245 140.64868164 328.30639648 C127.23581839 331.29863057 111.58297103 330.0648972 99.75805664 322.72827148 C99.06196289 322.25905273 98.36586914 321.78983398 97.64868164 321.30639648 C96.91133789 320.83717773 96.17399414 320.36795898 95.41430664 319.88452148 C84.02482657 311.95115951 78.13167835 300.04367954 75.07055664 286.80639648 C72.72720699 272.91988003 76.33389626 259.15500046 83.64868164 247.30639648 C85.83292396 244.46863588 88.15799681 241.87341283 90.64868164 239.30639648 C84.89753626 232.34647178 78.50684894 226.10820644 72.08032227 219.77709961 C67.64079174 215.37783693 63.34984551 210.93490929 59.28222656 206.18945312 C56.54391403 203.03288392 53.64787319 200.02621899 50.77368164 196.99389648 C45.90514152 191.8222366 41.29265934 186.53974402 36.85961914 180.98608398 C34.37006797 177.96871277 31.75115541 175.10561938 29.08618164 172.24389648 C25.06409944 167.91647115 21.2702798 163.47206697 17.62524414 158.82202148 C14.71524419 155.11838518 11.71603121 151.48912249 8.72680664 147.84936523 C6.64868164 145.30639648 6.64868164 145.30639648 4.82055664 142.48217773 C2.74300919 140.01292706 2.74300919 140.01292706 -0.71069336 139.54858398 C-5.90035913 140.6288363 -7.56399698 143.28127153 -10.60131836 147.43139648 C-11.43711426 148.51541748 -11.43711426 148.51541748 -12.28979492 149.62133789 C-13.43781079 151.11297533 -14.57680458 152.61159882 -15.70678711 154.11694336 C-18.12754827 157.33983322 -20.6125443 160.51093014 -23.10131836 163.68139648 C-23.77541748 164.54655884 -23.77541748 164.54655884 -24.46313477 165.42919922 C-27.85773239 169.76038758 -31.46377624 173.85064085 -35.19116211 177.90014648 C-37.40340524 180.36441731 -39.4725952 182.90636104 -41.53881836 185.49389648 C-46.43850125 191.55607004 -51.76694913 197.1817245 -57.11303711 202.84936523 C-60.11216662 206.03363678 -62.9955582 209.30245485 -65.84741211 212.61889648 C-67.99591384 215.02968285 -70.30219717 217.26705919 -72.60522461 219.52905273 C-74.41609479 221.37233222 -76.1045319 223.28462448 -77.78881836 225.24389648 C-81.43539028 229.47889251 -85.35483389 233.40333633 -89.35131836 237.30639648 C-87.9432572 240.40690554 -86.22861371 242.77124568 -84.03881836 245.36889648 C-74.7053875 257.23013153 -72.29497967 270.50088758 -73.35131836 285.30639648 C-75.58807645 299.34722248 -82.79441031 311.68597465 -94.22631836 320.05639648 C-98.71965408 323.05422989 -103.2953243 325.41488098 -108.35131836 327.30639648 C-109.21885742 327.6634668 -110.08639648 328.02053711 -110.98022461 328.38842773 C-122.10588884 331.41801185 -136.14074454 330.64893425 -146.35131836 325.30639648 C-147.11057617 324.95577148 -147.86983398 324.60514648 -148.65209961 324.24389648 C-160.76387011 318.21938888 -168.98694026 308.37816557 -174.22631836 296.11889648 C-178.4377839 283.51184703 -178.53600125 268.22074042 -172.90209961 256.06420898 C-164.95884599 241.93842295 -154.54180313 231.87010094 -138.83276367 226.80786133 C-136.07313678 226.25017994 -133.79732595 226.32709046 -130.99584961 226.56811523 C-122.39874507 227.28521481 -114.69901832 227.70048367 -107.66407776 221.98857117 C-101.29861188 216.33183126 -95.78529711 209.84303401 -90.35131836 203.30639648 C-85.70018702 197.89452724 -80.89510963 192.66264448 -75.97631836 187.49389648 C-70.87363263 182.09554814 -66.02083652 176.62395672 -61.39038086 170.81420898 C-59.2894993 168.23036614 -57.09545271 165.76646129 -54.85131836 163.30639648 C-47.89417889 155.65718555 -41.51792993 147.59857616 -35.35131836 139.30639648 C-36.35509521 139.33258057 -37.35887207 139.35876465 -38.39306641 139.38574219 C-42.12949188 139.47647817 -45.86582071 139.5337291 -49.60302734 139.58105469 C-51.21810297 139.60614607 -52.83306562 139.64022774 -54.44775391 139.68359375 C-56.77396542 139.74448934 -59.09867195 139.77265772 -61.42553711 139.79467773 C-62.50239021 139.83338737 -62.50239021 139.83338737 -63.60099792 139.87287903 C-67.52203314 139.87505562 -69.18282943 139.44099969 -72.28417969 136.96337891 C-75.35658016 133.01429017 -75.48728819 130.11706541 -75.54418945 125.24951172 C-75.56025238 124.0006871 -75.57631531 122.75186249 -75.59286499 121.4651947 C-75.60435739 120.09846686 -75.61496509 118.73173133 -75.62475586 117.36499023 C-75.63007954 116.67413897 -75.63540321 115.9832877 -75.64088821 115.27150154 C-75.66760517 111.60956051 -75.68697832 107.94765327 -75.70141602 104.28564453 C-75.71471172 101.27003348 -75.74248327 98.25510613 -75.78344727 95.23974609 C-75.83307767 91.58573348 -75.85757443 87.93233698 -75.8646431 84.27800179 C-75.87130894 82.89344618 -75.88640777 81.50890177 -75.91053391 80.12454033 C-76.07757282 69.95354698 -74.6648173 62.93804687 -68.44189453 54.81347656 C-67.84868408 54.24008545 -67.25547363 53.66669434 -66.64428711 53.07592773 C-65.97461914 52.41786133 -65.30495117 51.75979492 -64.61499023 51.08178711 C-63.92985352 50.4340332 -63.2447168 49.7862793 -62.53881836 49.11889648 C-61.8652832 48.45954102 -61.19174805 47.80018555 -60.49780273 47.12084961 C-56.49160667 43.22966396 -52.34673333 39.52722952 -48.12597656 35.87158203 C-45.93616494 33.9402459 -43.88403908 31.90166246 -41.85131836 29.80639648 C-38.51191011 26.42132112 -35.06112546 23.27713118 -31.44897461 20.18920898 C-28.97681591 17.9702509 -26.67341792 15.61917389 -24.35131836 13.24389648 C-16.99877135 5.8121682 -10.7628116 0.01039155 0 0 Z " fill="#E6845A" transform="translate(250.351318359375,77.693603515625)"></path><path d="M0 0 C0.92135742 0.00684814 1.84271484 0.01369629 2.79199219 0.02075195 C15.03117236 0.30831453 24.63191873 4.73377916 34.6875 11.4375 C34.6875 12.0975 34.6875 12.7575 34.6875 13.4375 C35.27660156 13.68628906 35.86570312 13.93507813 36.47265625 14.19140625 C44.49433559 18.7044851 48.84793082 29.47806234 51.4375 37.8671875 C55.21243805 53.85824452 51.95158421 68.52109404 43.6875 82.4375 C37.33343404 91.56368297 27.99783824 97.58026353 17.6875 101.4375 C16.38619141 101.97310547 16.38619141 101.97310547 15.05859375 102.51953125 C3.93292952 105.54911537 -10.10192618 104.78003777 -20.3125 99.4375 C-21.07175781 99.086875 -21.83101562 98.73625 -22.61328125 98.375 C-34.72505175 92.3504924 -42.9481219 82.50926909 -48.1875 70.25 C-52.39896554 57.64295055 -52.49718289 42.35184393 -46.86328125 30.1953125 C-38.89285464 16.02120372 -28.52097151 6.03075279 -12.74414062 1.02197266 C-8.50357143 0.00270331 -4.34392655 -0.04977914 0 0 Z " fill="#F3EEE6" transform="translate(124.3125,303.5625)"></path><path d="M0 0 C7.77427891 5.84957879 13.14080602 11.95383527 17.625 20.625 C18.04136719 21.37652344 18.45773437 22.12804687 18.88671875 22.90234375 C24.05045963 34.0813898 23.69053815 50.44187058 19.5625 61.9375 C12.13905525 77.71750406 0.77352868 87.59621596 -15.375 93.625 C-28.78786325 96.61723409 -44.44071061 95.38350072 -56.265625 88.046875 C-56.96171875 87.57765625 -57.6578125 87.1084375 -58.375 86.625 C-59.11234375 86.15578125 -59.8496875 85.6865625 -60.609375 85.203125 C-71.99885507 77.26976302 -77.89200329 65.36228306 -80.953125 52.125 C-83.29969603 38.2193939 -79.67120387 24.49822065 -72.375 12.625 C-70.24172677 9.74952547 -68.07382793 6.98995231 -65.375 4.625 C-64.715 4.625 -64.055 4.625 -63.375 4.625 C-63.375 3.965 -63.375 3.305 -63.375 2.625 C-43.90167689 -11.19105335 -20.2572244 -13.39395584 0 0 Z " fill="#F3EEE6" transform="translate(406.375,312.375)"></path><path d="M0 0 C3.60189277 1.20063092 4.34305857 2.39814637 6.625 5.375 C7.33398438 6.28507813 8.04296875 7.19515625 8.7734375 8.1328125 C9.50820313 9.07898438 10.24296875 10.02515625 11 11 C17.31296456 18.86187037 23.83317618 26.53706596 30.421875 34.16748047 C31.98523609 35.98285614 33.54018992 37.80514049 35.09375 39.62890625 C41.59073404 47.22726259 48.28457259 54.60030818 55.18066406 61.83911133 C58.60477534 65.43548554 61.96504115 69.07127574 65.26171875 72.78515625 C70.48316175 78.61328865 76.0078902 84.11881829 81.5625 89.625 C82.58161754 90.63908446 83.60049899 91.65340625 84.61914062 92.66796875 C87.07672412 95.11470835 89.53744246 97.55826544 92 100 C90.53678322 102.92643357 88.27045658 103.04179904 85.33203125 104.07421875 C82.03316697 105.38381814 79.04051911 107.12677645 75.98046875 108.9140625 C74 110 74 110 71 111 C70.67 111.66 70.34 112.32 70 113 C66.27964651 109.30458443 62.56275774 105.60572918 58.84887695 101.90380859 C57.58807785 100.6480018 56.32637824 99.39309836 55.0637207 98.13916016 C42.65189714 85.81083521 42.65189714 85.81083521 37.49731445 79.74462891 C34.81815717 76.62294981 31.95431713 73.67247921 29.125 70.6875 C24.25645988 65.51584011 19.6439777 60.23334753 15.2109375 54.6796875 C12.72138633 51.66231629 10.10247377 48.7992229 7.4375 45.9375 C3.41467796 41.60927866 -0.38130148 37.16555923 -4.0234375 32.51171875 C-6.22088655 29.7193082 -8.4828697 26.98606441 -10.75 24.25 C-13.73635847 20.61376042 -16.5166561 16.99494453 -19 13 C-18.21496094 12.64808594 -17.42992187 12.29617187 -16.62109375 11.93359375 C-9.92958289 8.78899417 -4.77540663 5.68340648 0 0 Z " fill="#8899AD" transform="translate(272,204)"></path><path d="M0 0 C1.46604895 0.04016572 2.93220334 0.07666116 4.3984375 0.109375 C7.97616254 0.19716433 11.5499086 0.33498602 15.125 0.5 C12.92355145 3.85487022 10.72022356 7.13362369 8.171875 10.234375 C7.37330078 11.21096069 7.37330078 11.21096069 6.55859375 12.20727539 C6.00300781 12.88137451 5.44742188 13.55547363 4.875 14.25 C3.70276369 15.68069362 2.53088723 17.11168216 1.359375 18.54296875 C0.79798828 19.22794434 0.23660156 19.91291992 -0.34179688 20.61865234 C-2.21183704 22.91332265 -4.04496417 25.23585188 -5.875 27.5625 C-10.86861908 33.82837872 -16.17168262 39.83244941 -21.44482422 45.86279297 C-22.59322489 47.17743532 -23.73684855 48.49624989 -24.87890625 49.81640625 C-28.77393345 54.31211234 -32.78920239 58.69398576 -36.81982422 63.06787109 C-39.46713747 65.94546496 -42.07190032 68.85113438 -44.625 71.8125 C-47.32666973 74.93228529 -50.18575054 77.83193984 -53.12890625 80.72265625 C-54.93977643 82.56593574 -56.62821354 84.47822799 -58.3125 86.4375 C-61.96110107 90.67218857 -65.88333751 94.59092363 -69.875 98.5 C-70.865 99.49 -70.865 99.49 -71.875 100.5 C-71.875 99.84 -71.875 99.18 -71.875 98.5 C-83.50069831 92.52839737 -83.50069831 92.52839737 -95.875 88.5 C-95.14522949 87.93249023 -94.41545898 87.36498047 -93.66357422 86.78027344 C-91.04128878 84.63597769 -88.65351146 82.40780162 -86.2578125 80.015625 C-84.97583984 78.73558594 -84.97583984 78.73558594 -83.66796875 77.4296875 C-82.78753906 76.54539062 -81.90710938 75.66109375 -81 74.75 C-80.12730469 73.88117188 -79.25460938 73.01234375 -78.35546875 72.1171875 C-73.91862396 67.67367076 -69.62778909 63.17181058 -65.53759766 58.40771484 C-62.62923719 55.07057406 -59.55106148 51.89360634 -56.5 48.6875 C-51.39731427 43.28915165 -46.54451816 37.81756024 -41.9140625 32.0078125 C-39.81318094 29.42396966 -37.61913435 26.9600648 -35.375 24.5 C-27.26443613 16.04568447 -27.26443613 16.04568447 -20.82910156 6.40136719 C-16.20297115 -1.88604645 -8.37523482 -0.39810533 0 0 Z " fill="#8899AD" transform="translate(230.875,216.5)"></path></svg></g></g><defs><clipPath id="SvgjsClipPath1321"><rect width="1000" height="1000" x="0" y="0" rx="500" ry="500"></rect></clipPath></defs></svg>