<?xml version="1.0" encoding="UTF-8"?>
<svg version="1.1" xmlns="http://www.w3.org/2000/svg" width="512" height="512">
<path d="M0 0 C168.96 0 337.92 0 512 0 C512 168.96 512 337.92 512 512 C343.04 512 174.08 512 0 512 C0 343.04 0 174.08 0 0 Z " fill="#020100" transform="translate(0,0)"/>
<path d="M0 0 C-0.56116321 4.14859948 -2.97931201 6.94395353 -5.5 10.125 C-6.17603271 10.98605347 -6.17603271 10.98605347 -6.86572266 11.86450195 C-22.4120787 31.48148401 -41.27227257 45.80171544 -65 54 C-65.64916162 54.23080009 -66.29832323 54.46160019 -66.96715641 54.69939423 C-84.18858056 60.67502699 -101.69615092 61.5714914 -119.78183174 61.4858551 C-123.60576826 61.46828188 -127.4289695 61.47626424 -131.25291443 61.4901123 C-139.35616643 61.51518292 -147.45922641 61.51018962 -155.5625 61.5 C-164.99707556 61.48816948 -174.43122421 61.4897472 -183.86576653 61.52406311 C-187.61088554 61.53109873 -191.35540742 61.51456553 -195.10047913 61.49694824 C-209.10380053 61.49861078 -221.53963382 61.5748946 -233.4140625 69.94921875 C-235 71 -235 71 -238 72 C-237.88529863 73.75070517 -237.75780972 75.50057536 -237.625 77.25 C-237.52058594 78.71179688 -237.52058594 78.71179688 -237.4140625 80.203125 C-237.01116674 82.92457181 -236.26239662 84.5983674 -235 87 C-235 87.99 -235 88.98 -235 90 C-234.34 90 -233.68 90 -233 90 C-232.40832031 91.24910156 -232.40832031 91.24910156 -231.8046875 92.5234375 C-229.79471895 96.39545484 -227.51958227 99.98368728 -225.125 103.625 C-224.14579762 105.12497668 -223.1666326 106.62497776 -222.1875 108.125 C-221.671875 108.91261719 -221.15625 109.70023437 -220.625 110.51171875 C-218.93000126 113.10718558 -217.24511714 115.70899104 -215.5625 118.3125 C-214.98999512 119.19728027 -214.41749023 120.08206055 -213.82763672 120.99365234 C-212.71902536 122.70696081 -211.61123538 124.42080112 -210.50439453 126.13525391 C-208.21925834 129.65850021 -205.92126788 133.14242313 -203.4296875 136.5234375 C-201.64197799 138.98600195 -200.14175694 141.49467913 -198.70336914 144.17529297 C-196.1358159 148.84048988 -193.29011018 153.2575866 -190.31640625 157.671875 C-189.78348465 158.46899902 -189.25056305 159.26612305 -188.70149231 160.08740234 C-187.57156382 161.77654811 -186.44005854 163.46464005 -185.30706787 165.1517334 C-183.54757362 167.77223056 -181.79296468 170.39593901 -180.03955078 173.02050781 C-175.10533636 180.40252903 -170.15882916 187.77584589 -165.17578125 195.125 C-164.51570068 196.10243164 -163.85562012 197.07986328 -163.17553711 198.08691406 C-162.00932917 199.81179491 -160.83732082 201.53277402 -159.65844727 203.24902344 C-159.16014404 203.98668945 -158.66184082 204.72435547 -158.1484375 205.484375 C-157.72739746 206.10022461 -157.30635742 206.71607422 -156.87255859 207.35058594 C-156 209 -156 209 -156 212 C-160.27005967 210.48585126 -163.92072458 208.28493078 -167.6875 205.8125 C-168.30834473 205.4095874 -168.92918945 205.0066748 -169.56884766 204.59155273 C-173.05507741 202.31653314 -176.48520835 199.97966892 -179.875 197.5625 C-184.00070567 194.6280666 -188.25175874 191.96163702 -192.5625 189.3125 C-199.04922319 185.31424446 -205.29118785 181.05044812 -211.48461914 176.61376953 C-216.74788136 172.85266103 -222.09816597 169.24618415 -227.5 165.6875 C-232.84402984 162.16477162 -238.06398271 158.61313865 -242.98046875 154.5 C-245.22372749 152.83382716 -247.60456556 151.52826148 -250.03930664 150.16503906 C-253.73079464 147.97156618 -257.1610344 145.40701874 -260.625 142.875 C-261.41261719 142.30241455 -262.20023438 141.7298291 -263.01171875 141.13989258 C-273.21838026 133.69131165 -283.16392143 125.9312042 -293 118 C-293.82757813 117.39671875 -294.65515625 116.7934375 -295.5078125 116.171875 C-298.40480761 113.64722095 -300.36868874 110.85926178 -302.375 107.625 C-302.95254028 106.70352173 -302.95254028 106.70352173 -303.54174805 105.76342773 C-314.09907481 88.63641861 -321.40273722 70.84073076 -316.6875 50.5 C-315.51738694 46.38555594 -314.18574083 42.69894602 -312 39 C-311.64035156 38.37738281 -311.28070313 37.75476563 -310.91015625 37.11328125 C-304.33948663 26.09219003 -296.17335282 19.36403214 -284 15 C-279.09265623 14.14111966 -274.37026295 13.87169532 -269.39302063 13.86196899 C-268.65854381 13.85914771 -267.924067 13.85632643 -267.1673333 13.85341966 C-264.72132652 13.84512954 -262.27536535 13.84374002 -259.8293457 13.84228516 C-258.06721369 13.83761148 -256.30508287 13.832467 -254.54295349 13.82688904 C-250.74807664 13.81562522 -246.95320757 13.80718145 -243.15831947 13.80076981 C-237.10935762 13.79000778 -231.06045018 13.76972921 -225.01152039 13.74765015 C-207.80856914 13.68604057 -190.60561836 13.6321915 -173.40258789 13.59863281 C-163.90011733 13.58001533 -154.39773578 13.5507343 -144.89533108 13.5106281 C-139.89173469 13.48996045 -134.88824856 13.47416075 -129.88460732 13.47182083 C-108.83580364 13.45913266 -87.8965865 13.02582573 -66.89135742 11.59521484 C-65.96064191 11.53283166 -65.02992639 11.47044848 -64.07100737 11.4061749 C-54.60850132 10.75798185 -45.28504173 10.03864601 -36 8 C-34.9382959 7.78931885 -33.8765918 7.5786377 -32.78271484 7.36157227 C-29.97896436 6.76723252 -27.1764986 6.16736902 -24.375 5.5625 C-23.40304687 5.35818359 -22.43109375 5.15386719 -21.4296875 4.94335938 C-16.12648114 3.79932091 -11.04719737 2.45897728 -5.95947266 0.56616211 C-4 0 -4 0 0 0 Z " fill="#FC6A34" transform="translate(440,221)"/>
<path d="M0 0 C3.28651271 0.61958469 5.39772585 1.77488047 8.08984375 3.73828125 C9.25713013 4.5888208 9.25713013 4.5888208 10.44799805 5.45654297 C11.26953369 6.06900879 12.09106934 6.68147461 12.9375 7.3125 C14.20750854 8.25440186 14.20750854 8.25440186 15.50317383 9.21533203 C22.79949064 14.70399967 29.48067631 20.62117897 36 27 C36.7321875 27.68191406 37.464375 28.36382812 38.21875 29.06640625 C61.55230244 51.24254042 78.94596918 86.49225369 80.10058594 118.81591797 C80.18244216 122.10684123 80.22564782 125.39565837 80.25 128.6875 C80.26426025 130.27449707 80.26426025 130.27449707 80.27880859 131.89355469 C80.20830351 148.56931307 75.22979077 161.24190471 63.6796875 173.453125 C56.19010606 180.5333081 47.83449826 185.87024622 38 189 C36.43318896 189.65647075 34.87048361 190.32284583 33.3125 191 C27.95929213 193.16372174 22.6843092 194.12426609 17 195 C15.14477516 195.32739262 13.29058461 195.66070282 11.4375 196 C10.52226562 196.16371094 9.60703125 196.32742187 8.6640625 196.49609375 C6.98643511 196.81341623 5.31324561 197.15628796 3.6484375 197.53515625 C-10.20814925 200.66331547 -24.78649614 200.14718983 -38.91894531 200.12939453 C-40.75715672 200.13075323 -42.59536786 200.13253578 -44.43357849 200.13470459 C-49.37283161 200.13921934 -54.31206359 200.1375152 -59.25131702 200.1343255 C-64.43705612 200.13177544 -69.62279354 200.13414634 -74.80853271 200.13571167 C-83.49979983 200.13752373 -92.1910584 200.13515038 -100.88232422 200.13037109 C-110.93002795 200.12490973 -120.97771145 200.12670853 -131.02541471 200.1321975 C-139.67201449 200.13673163 -148.31860818 200.13737832 -156.96520877 200.13475883 C-162.12163802 200.13320036 -167.27805775 200.13299098 -172.43448639 200.13629532 C-177.27073177 200.13917907 -182.1069509 200.13718904 -186.94319344 200.13140106 C-188.71856454 200.13007707 -190.49393785 200.13046149 -192.26930809 200.13266373 C-194.68870366 200.1353888 -197.10801463 200.13197764 -199.52740479 200.12698364 C-200.23244684 200.12921436 -200.93748888 200.13144509 -201.66389585 200.13374341 C-204.93546491 200.12060787 -207.86386927 199.95160462 -211 199 C-226.12564235 197.71207402 -240.50382703 203.11764818 -252.7578125 211.64453125 C-255 213 -255 213 -258 213 C-256.54425184 207.86908436 -254.26971734 203.77124534 -251.4375 199.3125 C-250.99059814 198.60697998 -250.54369629 197.90145996 -250.08325195 197.17456055 C-246.14537134 191.05910789 -241.89018133 185.39472384 -237 180 C-236.29085449 179.21713623 -236.29085449 179.21713623 -235.56738281 178.41845703 C-225.49575338 167.44906894 -213.2681757 156.78020898 -198.1875 153.875 C-195.8779899 153.42184311 -194.10961218 153.05480609 -192 152 C-189.6053614 151.91736845 -187.2406237 151.89523037 -184.84643555 151.91821289 C-184.104142 151.92122847 -183.36184845 151.92424404 -182.59706116 151.927351 C-180.9710401 151.93444891 -179.34502774 151.94380166 -177.71903038 151.95509148 C-175.09815277 151.97291857 -172.47731991 151.98430185 -169.85639954 151.99378967 C-166.09460643 152.00746829 -162.33282647 152.02281765 -158.57104492 152.03936768 C-129.36806779 152.16059887 -100.18876166 152.10508761 -71 151.125 C-69.12953506 151.06591965 -69.12953506 151.06591965 -67.22128296 151.00564575 C-44.17526804 150.60991819 -44.17526804 150.60991819 -22 145 C-21.06671875 144.65066406 -20.1334375 144.30132812 -19.171875 143.94140625 C-3.19000416 137.69208496 9.6338376 128.13280293 16.80126953 112.22119141 C28.44792475 85.19682859 25.45078327 54.9432815 15 28 C11.4556337 19.98628114 7.37962022 12.17155223 2.1953125 5.09375 C0 2 0 2 0 0 Z " fill="#FC6A34" transform="translate(388,24)"/>
<path d="M0 0 C2.04323323 0.00052111 4.08646696 -0.00000623 6.12969971 -0.00151062 C10.40262397 -0.00142142 14.67535761 0.00888381 18.94824219 0.02709961 C24.30848321 0.04949924 29.66844245 0.05019193 35.02871704 0.04384327 C69.43140089 0.01312304 103.54673242 0.93832172 137.703125 5.36328125 C139.10981445 5.53512939 139.10981445 5.53512939 140.54492188 5.71044922 C154.03022383 7.3684387 167.37673244 9.3315632 178.703125 17.36328125 C180.01023437 18.24886719 180.01023437 18.24886719 181.34375 19.15234375 C197.3680872 30.42695226 210.1333184 46.27741065 215.703125 65.36328125 C215.92539591 66.73309032 216.11352772 68.1089163 216.265625 69.48828125 C216.67247325 73.09179435 217.49552006 75.96689235 218.703125 79.36328125 C220.18979805 85.40437588 219.92660342 91.57231955 219.94335938 97.75317383 C219.9529871 99.89510109 219.98400956 102.036035 220.015625 104.17773438 C220.13625613 119.67742931 217.00202773 132.93619785 206.203125 144.55078125 C193.98526034 156.10722768 179.196162 161.3057408 162.74609375 162.92578125 C158.68713463 163.33347024 154.75353755 164.06732148 150.78125 164.99609375 C148.39133561 165.41837186 146.12515004 165.42256158 143.703125 165.36328125 C143.373125 164.04328125 143.043125 162.72328125 142.703125 161.36328125 C143.363125 161.36328125 144.023125 161.36328125 144.703125 161.36328125 C144.85007812 160.82703125 144.99703125 160.29078125 145.1484375 159.73828125 C146.72422527 154.23208032 148.59516135 148.89515336 150.640625 143.55078125 C155.99159965 129.5146229 158.9025472 117.1752439 159.015625 102.11328125 C159.05913086 100.20482422 159.05913086 100.20482422 159.10351562 98.2578125 C159.17349975 87.8247941 157.67320904 79.7168178 150.265625 71.98828125 C149.52441406 71.19679688 148.78320312 70.4053125 148.01953125 69.58984375 C129.0866814 51.39132029 96.91400629 50.22769353 72.13354492 50.20214844 C70.95100128 50.19718353 69.76845764 50.19221863 68.55007935 50.18710327 C64.67791132 50.17262435 60.80578429 50.16570226 56.93359375 50.16015625 C55.58289377 50.15741302 54.23219402 50.15455606 52.88149452 50.15158844 C46.52551595 50.13795586 40.16954995 50.12827024 33.8135578 50.12438655 C26.55791082 50.11992477 19.30245399 50.10244685 12.04686469 50.07338595 C6.38512414 50.05152248 0.72343608 50.04166926 -4.93834609 50.04034543 C-8.29474822 50.0393142 -11.6508302 50.03224504 -15.00721169 50.01552582 C-51.06941765 49.84876219 -82.99981481 53.27040852 -109.796875 79.61328125 C-112.04253039 81.9442147 -114.13760403 84.34689981 -116.171875 86.86328125 C-116.873125 87.68828125 -117.574375 88.51328125 -118.296875 89.36328125 C-118.956875 89.36328125 -119.616875 89.36328125 -120.296875 89.36328125 C-119.74304615 85.23819824 -118.82841521 81.88582373 -117.0390625 78.1328125 C-116.58225098 77.17060791 -116.12543945 76.20840332 -115.65478516 75.21704102 C-115.1654248 74.21342529 -114.67606445 73.20980957 -114.171875 72.17578125 C-113.66833496 71.13929443 -113.16479492 70.10280762 -112.64599609 69.03491211 C-97.45074271 38.12976675 -74.41354588 15.9043382 -41.75390625 4.57421875 C-27.81503781 0.53196282 -14.40602957 -0.07402743 0 0 Z " fill="#FC6934" transform="translate(180.296875,-0.36328125)"/>
<path d="M0 0 C1.22203125 -0.01417969 2.4440625 -0.02835937 3.703125 -0.04296875 C6.75 0.1875 6.75 0.1875 8.75 2.1875 C8.27205647 8.93493808 6.41287362 15.60185318 4.9375 22.1875 C4.66905273 23.39051758 4.40060547 24.59353516 4.12402344 25.83300781 C1.92676805 35.58776918 -0.47453288 45.24160111 -3.3359375 54.82421875 C-4.04402731 57.42962612 -4.47806034 59.5881315 -4.625 62.25 C-5.87314703 70.1133263 -11.02395151 73.89266427 -16.734375 78.91015625 C-27.91931225 89.03565069 -36.21819788 101.95681993 -43.25 115.1875 C-43.66121094 115.94289063 -44.07242188 116.69828125 -44.49609375 117.4765625 C-46.87782038 122.27708544 -48.1700144 127.31758251 -49.4375 132.5 C-49.60475586 133.17522705 -49.77201172 133.8504541 -49.94433594 134.54614258 C-52.35773623 145.07926643 -52.43135636 155.86748271 -52.4375 166.625 C-52.44974609 167.74970703 -52.46199219 168.87441406 -52.47460938 170.03320312 C-52.49414534 181.37057479 -51.6124156 192.07061708 -46.25 202.1875 C-45.59355461 203.4595346 -44.93732387 204.73167999 -44.28125 206.00390625 C-40.90012929 213.04612637 -40.90012929 213.04612637 -36.25 219.1875 C-36.45077491 222.24931744 -36.79415165 225.15997889 -37.25 228.1875 C-37.38664062 229.198125 -37.52328125 230.20875 -37.6640625 231.25 C-38.5535638 237.52173796 -39.79238378 243.56746185 -41.39453125 249.69140625 C-42.4897725 254.16739217 -43.4097818 258.66927318 -44.3125 263.1875 C-44.55589111 264.39708374 -44.55589111 264.39708374 -44.80419922 265.63110352 C-45.6717793 270.01700708 -46.46359243 274.40838433 -47.1875 278.8203125 C-48.29574938 285.56355469 -49.53767337 292.27985305 -50.79956055 298.99560547 C-51.18565155 301.0526517 -51.56851174 303.11028189 -51.95117188 305.16796875 C-52.69999313 309.17792484 -53.46880997 313.18373148 -54.25 317.1875 C-54.38013489 317.85930298 -54.51026978 318.53110596 -54.64434814 319.2232666 C-55.02603121 321.17406496 -55.42097864 323.12225367 -55.81640625 325.0703125 C-56.1578064 326.76631592 -56.1578064 326.76631592 -56.50610352 328.49658203 C-57.25 331.1875 -57.25 331.1875 -59.25 333.1875 C-61.19950208 333.82506955 -63.17710245 334.37775602 -65.1640625 334.88671875 C-66.38770508 335.20511719 -67.61134766 335.52351563 -68.87207031 335.8515625 C-69.85028748 336.10147949 -69.85028748 336.10147949 -70.8482666 336.35644531 C-74.28583871 337.23597349 -77.71688111 338.1403058 -81.1484375 339.04296875 C-81.84066406 339.22459564 -82.53289062 339.40622253 -83.24609375 339.59335327 C-95.72484666 342.87885315 -108.08706452 346.57804961 -120.41015625 350.40234375 C-121.60286133 350.77230469 -122.79556641 351.14226562 -124.02441406 351.5234375 C-126.33900996 352.24407349 -128.65222695 352.96915723 -130.96386719 353.69921875 C-132.00317383 354.0240625 -133.04248047 354.34890625 -134.11328125 354.68359375 C-135.03407471 354.97419678 -135.95486816 355.2647998 -136.90356445 355.56420898 C-139.25 356.1875 -139.25 356.1875 -142.25 356.1875 C-140.96462112 348.94263722 -139.13353564 341.93788785 -137.1027832 334.87353516 C-135.80337183 330.32134238 -134.67210975 325.76811201 -133.69726562 321.13500977 C-133.07404558 318.42134911 -132.13010662 315.82781985 -131.25 313.1875 C-130.90366415 311.6695749 -130.57125076 310.14843135 -130.25 308.625 C-129.73019313 306.1802833 -129.20112582 304.06836918 -128.25 301.75 C-126.95547891 298.43278971 -126.41681618 295.09164016 -125.8125 291.58984375 C-125.25 289.1875 -125.25 289.1875 -124.26879883 287.30273438 C-123.21844326 285.12198177 -122.78924108 283.32089348 -122.38671875 280.94140625 C-121.00071069 273.57226133 -118.99973768 266.36363491 -117.0625 259.125 C-116.6583965 257.60719125 -116.25434438 256.08936882 -115.8503418 254.5715332 C-111.2201545 237.21499485 -106.3413412 219.93024354 -101.38256836 202.66503906 C-99.54203697 196.24823519 -97.76987036 189.8140711 -96.01000977 183.37475586 C-94.83526598 179.12951772 -93.52390819 174.97023327 -92.0625 170.8125 C-90.33908204 165.84905627 -89.50443275 160.98054439 -88.74609375 155.79296875 C-88.13367203 152.57654917 -86.73406469 150.09379335 -85.25 147.1875 C-84.91116657 145.52208022 -84.61828746 143.84706299 -84.35546875 142.16796875 C-83.36601873 136.46014332 -81.82274223 131.07388585 -80.0625 125.5625 C-77.52364655 117.43100229 -75.13037057 109.27699683 -72.875 101.0625 C-69.16469182 87.65531922 -65.09279344 74.37115251 -60.8651123 61.11865234 C-60.23066827 59.1268078 -59.60006368 57.13377267 -58.96972656 55.140625 C-57.89294529 51.74260624 -56.80058961 48.34991528 -55.69766235 44.96029663 C-55.08269848 43.06233842 -54.47901984 41.16073513 -53.87573242 39.2590332 C-48.49333883 22.90046952 -40.2912287 13.33533675 -24.88671875 5.40234375 C-16.73174441 1.64501483 -8.99880535 0.04786599 0 0 Z " fill="#FC6A34" transform="translate(164.25,112.8125)"/>
<path d="M0 0 C2.28120553 -0.03174219 4.56224364 -0.07960091 6.84277344 -0.14355469 C10.15085117 -0.23487614 13.45598862 -0.27360871 16.76513672 -0.30151367 C17.77886353 -0.3396669 18.79259033 -0.37782013 19.83703613 -0.41712952 C23.97391196 -0.4057996 26.78209514 -0.3963465 30.08781433 2.24766541 C31.8672372 4.25989571 33.41412131 6.29409072 34.92138672 8.51489258 C35.68064453 9.48813477 36.43990234 10.46137695 37.22216797 11.46411133 C37.88603516 12.36774414 38.54990234 13.27137695 39.23388672 14.20239258 C42.39433389 18.47167461 45.59971412 22.69625856 48.85888672 26.88989258 C52.28803461 31.31278543 55.57786255 35.81188022 58.79638672 40.38989258 C62.25795021 45.30380328 65.88229098 50.03688198 69.67138672 54.70239258 C76.73465828 63.41056685 83.3160679 72.45746225 89.92138672 81.51489258 C96.82249352 90.96607521 103.75794405 100.37108061 110.98388672 109.57739258 C117.39226532 117.74345688 123.4896606 126.10823047 129.51855469 134.55688477 C131.4449132 137.24560653 133.4017807 139.91097489 135.35888672 142.57739258 C136.54687062 144.22287666 137.73440095 145.86868834 138.92138672 147.51489258 C139.83791016 148.7465918 139.83791016 148.7465918 140.77294922 150.00317383 C141.33755859 150.79079102 141.90216797 151.5784082 142.48388672 152.38989258 C142.98017578 153.06793945 143.47646484 153.74598633 143.98779297 154.44458008 C145.24532509 157.23324963 144.90746839 158.65296253 143.92138672 161.51489258 C142.60888672 163.14770508 142.60888672 163.14770508 140.92138672 164.63989258 C137.93646896 167.44958237 135.34968774 170.36927819 132.79638672 173.57739258 C128.1052214 179.40921795 123.04375744 184.8397586 117.92529297 190.29614258 C115.10520037 193.30470457 112.37395391 196.37853621 109.68310547 199.50317383 C106.50948852 203.12714883 103.22564673 206.65317251 99.96044922 210.19458008 C97.90561344 212.33436139 97.90561344 212.33436139 96.92138672 214.51489258 C93.58966824 213.12336551 92.04751907 211.69289356 90.07373047 208.69067383 C89.55617188 207.91626953 89.03861328 207.14186523 88.50537109 206.34399414 C87.96203125 205.51351562 87.41869141 204.68303711 86.85888672 203.82739258 C85.70342261 202.09813102 84.54583898 200.37028397 83.38623047 198.64379883 C82.80728027 197.78028809 82.22833008 196.91677734 81.63183594 196.02709961 C78.33969059 191.1917905 74.84508258 186.50777863 71.35888672 181.81176758 C67.66220604 176.82540891 64.07686828 171.8665893 60.92138672 166.51489258 C59.45484313 164.25524667 57.97870534 162.00563401 56.48388672 159.76489258 C56.05430664 159.12092529 55.62472656 158.47695801 55.18212891 157.81347656 C51.74436678 152.68816394 48.22818277 147.62070258 44.67138672 142.57739258 C44.18871338 141.89257812 43.70604004 141.20776367 43.20874023 140.50219727 C40.28767044 136.38103673 37.29289599 132.32723972 34.22094727 128.31713867 C32.62590334 126.1051127 31.34860943 123.74757055 30.04638672 121.35473633 C28.23765005 118.39669823 26.01493649 115.77813801 23.80029297 113.11645508 C22.17337187 110.86379509 20.88054269 108.68177156 19.56201172 106.24536133 C17.05770127 101.64504677 14.18012729 97.43848392 11.10888672 93.20239258 C10.04381966 91.71501633 8.98002136 90.22673075 7.91748047 88.73754883 C7.40427246 88.01841309 6.89106445 87.29927734 6.36230469 86.55834961 C4.40841367 83.78741301 2.53593485 80.97179044 0.67138672 78.13989258 C-1.7968032 74.39435077 -4.34831166 70.74587984 -7.01611328 67.13989258 C-10.10435425 62.93696108 -13.00906497 58.65007972 -15.82861328 54.26489258 C-16.1933374 53.69851074 -16.55806152 53.13212891 -16.93383789 52.54858398 C-19.03132364 49.25616987 -20.99778279 45.90791639 -22.91796875 42.51000977 C-25.9928254 37.22441268 -29.31232146 32.07896295 -32.56494141 26.90161133 C-33.13019531 25.99540039 -33.69544922 25.08918945 -34.27783203 24.15551758 C-34.79176514 23.33599609 -35.30569824 22.51647461 -35.83520508 21.67211914 C-38.20277771 17.56454565 -38.55474681 14.19687223 -38.07861328 9.51489258 C-35.30506247 5.31494421 -32.97985785 2.79855187 -28.07861328 1.51489258 C-18.81290416 -0.10691151 -9.38000484 0.10073668 0 0 Z " fill="#FD6A34" transform="translate(258.07861328125,293.485107421875)"/>
<path d="M0 0 C1.22788239 -0.00426498 2.45576477 -0.00852997 3.72085571 -0.01292419 C5.09448245 -0.01257461 6.46810917 -0.01211304 7.84173584 -0.0115509 C9.27890104 -0.0145411 10.71606543 -0.0179433 12.15322876 -0.02172852 C16.0712771 -0.03059557 19.98930363 -0.032908 23.90736103 -0.0335443 C26.35830475 -0.03425427 28.8092429 -0.03638778 31.26018524 -0.03904152 C39.820901 -0.04830992 48.38160116 -0.0523753 56.94232178 -0.05158997 C64.90201821 -0.05099154 72.86164636 -0.06149312 80.82132554 -0.07733363 C87.66395835 -0.09046194 94.50656903 -0.09577152 101.34921432 -0.09513456 C105.4313838 -0.09488075 109.51349286 -0.0976657 113.59564972 -0.10831261 C117.44682122 -0.11808064 121.29787575 -0.11801391 125.14905167 -0.11079597 C126.55296883 -0.10976024 127.95689361 -0.11205188 129.36079788 -0.11815643 C148.9149687 -0.19758167 167.90771444 2.00230237 182.34857178 16.13371277 C189.01653422 23.79102736 187.93788015 33.75558819 187.65496826 43.32121277 C187.34857178 45.13371277 187.34857178 45.13371277 185.34857178 47.13371277 C178.71600859 46.62132591 172.25276203 45.17099825 165.73919678 43.85246277 C153.74141296 41.72752226 141.43371066 41.81257985 129.28607178 41.57121277 C127.78294434 41.54093994 127.78294434 41.54093994 126.24945068 41.51005554 C104.98467559 41.10048619 83.71600819 40.96430321 62.44772339 40.90254211 C58.73596974 40.89150321 55.02434638 40.87370533 51.31265259 40.84999084 C46.86319368 40.82224915 42.41394202 40.8103522 37.96439934 40.80957603 C36.31793532 40.80697241 34.67146948 40.799377 33.02505684 40.78611183 C13.37142446 40.63709161 -3.30258614 42.88705732 -18.65142822 56.13371277 C-19.24568604 56.64418152 -19.83994385 57.15465027 -20.45220947 57.68058777 C-39.99030036 75.82630896 -47.51250236 103.83447311 -53.1494751 128.93840027 C-57.69536933 148.8200544 -63.28099754 168.46408359 -68.65142822 188.13371277 C-69.97142822 188.13371277 -71.29142822 188.13371277 -72.65142822 188.13371277 C-75.15789601 178.46782324 -77.65329344 168.79913906 -80.13861084 159.12779236 C-80.60976613 157.29571494 -81.08219559 155.46396533 -81.55474854 153.63224792 C-84.23598733 143.21740043 -86.82217945 132.79957372 -88.96392822 122.25871277 C-89.12344971 121.48052185 -89.28297119 120.70233093 -89.44732666 119.90055847 C-94.43017803 94.45556745 -93.20013438 68.30788547 -78.90142822 46.00871277 C-68.69204245 31.35299637 -55.99705273 20.15518416 -40.628479 11.27677917 C-39.36471852 10.546114 -38.10713544 9.80458827 -36.85797119 9.04924011 C-28.07144974 3.76428416 -20.23732331 2.10796946 -10.19439697 1.42277527 C-6.32131511 1.10677961 -4.10847035 0.00641317 0 0 Z " fill="#FC6934" transform="translate(139.65142822265625,60.86628723144531)"/>
<path d="M0 0 C4.36644027 0.42599417 7.31380697 1.63146975 11.04150391 3.90527344 C13.17247758 5.09640856 15.30499467 5.95923865 17.5859375 6.828125 C22.97950342 8.94948288 28.16683381 11.40017638 33.375 13.9375 C42.17172751 18.18561582 51.00643986 22.3415343 59.875 26.4375 C70.26935945 31.2412534 80.61488084 36.13704484 90.91943359 41.13061523 C91.88059082 41.59540283 92.84174805 42.06019043 93.83203125 42.5390625 C94.66452393 42.94334473 95.4970166 43.34762695 96.35473633 43.76416016 C98.36150424 44.70170138 100.38922146 45.59456025 102.42553711 46.46606445 C108.28674799 48.98132898 114.00758185 51.78924809 119.75 54.5625 C120.39018066 54.87102905 121.03036133 55.17955811 121.68994141 55.49743652 C130.64606467 59.81832412 139.52425824 64.25446071 148.27636719 68.97875977 C151.79255111 70.87306499 155.240206 72.61945064 159 74 C159 74.99 159 75.98 159 77 C157.824375 77.37125 156.64875 77.7425 155.4375 78.125 C145.7572941 81.35681677 136.38647239 85.34600846 127.11425781 89.59033203 C121.77389209 92.00764715 116.39221459 94.32996025 111.01196289 96.65673828 C109.06792539 97.49765319 107.12474026 98.34051434 105.18164062 99.18359375 C102.6603173 100.27699686 100.13623189 101.36362222 97.60986328 102.4453125 C95.24167237 103.46523944 92.88031213 104.50120711 90.52685547 105.5546875 C88.93381592 106.25464844 88.93381592 106.25464844 87.30859375 106.96875 C86.37716553 107.38576172 85.4457373 107.80277344 84.48608398 108.23242188 C81.77717437 109.06879739 80.58986769 109.08636108 78 108 C76.31640625 106.12890625 76.31640625 106.12890625 74.5625 103.5625 C73.8715625 102.5725 73.180625 101.5825 72.46875 100.5625 C72.08203125 100.00175781 71.6953125 99.44101562 71.296875 98.86328125 C68.76706868 95.22858964 66.15825762 91.65022392 63.5625 88.0625 C62.99950195 87.28245605 62.43650391 86.50241211 61.85644531 85.69873047 C55.7971317 77.31228916 49.59246351 69.04995699 43.25 60.875 C38.60540206 54.87901292 34.16954131 48.74060554 29.74487305 42.58129883 C26.04734107 37.43740335 22.2892008 32.34651281 18.46875 27.29296875 C16.42653773 24.58196693 14.41470061 21.84937852 12.40625 19.11328125 C11.77259521 18.25017334 11.13894043 17.38706543 10.48608398 16.49780273 C9.22116443 14.77308758 7.95761493 13.04736662 6.69555664 11.32055664 C5.8272522 10.13707642 5.8272522 10.13707642 4.94140625 8.9296875 C4.42263916 8.22054199 3.90387207 7.51139648 3.36938477 6.78076172 C1.97737769 4.89105081 1.97737769 4.89105081 0 3 C0 2.01 0 1.02 0 0 Z " fill="#FC6A34" transform="translate(333,334)"/>
<path d="M0 0 C9.25624763 4.18735012 17.1066422 11.70586558 24 19 C24.928125 19.886875 25.85625 20.77375 26.8125 21.6875 C31.32969701 26.46282256 33.11064498 31.81064862 35.07421875 37.9453125 C35.35947922 38.82061111 35.64473969 39.69590973 35.93864441 40.59773254 C36.8617642 43.43799383 37.77518679 46.28125078 38.6875 49.125 C39.31714265 51.07497617 39.94686299 53.02492725 40.57666016 54.97485352 C44.10557544 65.93301907 47.57602246 76.90773442 50.875 87.9375 C51.20201904 89.02369629 51.52903809 90.10989258 51.8659668 91.22900391 C52.15511963 92.21433105 52.44427246 93.1996582 52.7421875 94.21484375 C52.9882373 95.05136475 53.23428711 95.88788574 53.48779297 96.74975586 C54 99 54 99 54 103 C54.66 103 55.32 103 56 103 C56.83732743 106.12394391 57.66917982 109.24931974 58.5 112.375 C58.85771484 113.70917969 58.85771484 113.70917969 59.22265625 115.0703125 C59.44824219 115.92109375 59.67382812 116.771875 59.90625 117.6484375 C60.11572266 118.43395996 60.32519531 119.21948242 60.54101562 120.02880859 C61 122 61 122 61 124 C54.42883881 123.40612745 48.52696671 121.80418382 42.25 119.8125 C40.2123532 119.17932177 38.17459045 118.54651655 36.13671875 117.9140625 C35.11497559 117.59469727 34.09323242 117.27533203 33.04052734 116.94628906 C28.38953867 115.49878367 23.72726756 114.08984906 19.0625 112.6875 C17.86705566 112.32458862 17.86705566 112.32458862 16.64746094 111.9543457 C13.06130903 110.87431248 9.4818059 109.85558147 5.83984375 108.98046875 C-14.1147541 103.8852459 -14.1147541 103.8852459 -20 98 C-19.8818288 91.30060206 -19.42816241 84.65752032 -17.5390625 78.21484375 C-16.47432438 73.84015887 -16.03725965 69.33996572 -15.46484375 64.87890625 C-15 62 -15 62 -14 61 C-13.71424382 59.57707014 -13.48247035 58.14323849 -13.2734375 56.70703125 C-13.13220459 55.78075928 -12.99097168 54.8544873 -12.84545898 53.90014648 C-12.69020752 52.88122314 -12.53495605 51.8622998 -12.375 50.8125 C-10.77172719 40.75714928 -8.74172392 30.85042201 -6.4375 20.9375 C-6.14472168 19.66044189 -5.85194336 18.38338379 -5.55029297 17.06762695 C-4.14075599 11.10667523 -2.69453002 5.51191096 0 0 Z " fill="#FB6934" transform="translate(139,348)"/>
<path d="M0 0 C0.81919922 0.28423828 1.63839844 0.56847656 2.48242188 0.86132812 C3.72282227 1.31475586 3.72282227 1.31475586 4.98828125 1.77734375 C18.90874114 6.71015402 33.00927171 11.08320495 47.11579895 15.44972229 C50.98047811 16.64715776 54.84257633 17.85278786 58.7043457 19.05957031 C60.6799502 19.67438705 62.65689277 20.28491722 64.63500977 20.89160156 C67.54416274 21.78498393 70.44816113 22.69359523 73.3515625 23.60546875 C74.23983231 23.87425842 75.12810211 24.1430481 76.04328918 24.41998291 C76.85311752 24.677453 77.66294586 24.9349231 78.49731445 25.20019531 C79.21039261 25.42112854 79.92347076 25.64206177 80.65815735 25.86968994 C82.30078125 26.71484375 82.30078125 26.71484375 83.30078125 29.71484375 C71.52648983 34.89321762 59.11729051 38.11155133 46.62109375 41.0078125 C39.09101482 42.77567575 31.59983428 44.65633218 24.125 46.64453125 C22.27020366 47.13419553 20.41538595 47.62377888 18.56054688 48.11328125 C15.74581084 48.8568805 12.93258376 49.60491277 10.12231445 50.36523438 C7.33488987 51.11749859 4.54312816 51.85127253 1.75 52.58203125 C0.91659592 52.81211884 0.08319183 53.04220642 -0.77546692 53.27926636 C-8.61851785 55.2997912 -14.71292597 54.17295378 -22.48828125 51.89453125 C-23.74898438 51.52739014 -25.0096875 51.16024902 -26.30859375 50.78198242 C-27.64721395 50.38486748 -28.98575399 49.98748227 -30.32421875 49.58984375 C-31.71216084 49.18243023 -33.10018253 48.77528776 -34.48828125 48.3684082 C-43.49290578 45.71796444 -52.44694916 42.92620969 -61.37744141 40.03540039 C-67.60966233 38.02800286 -73.86124386 36.25819347 -80.203125 34.625 C-86.06640386 33.09858215 -91.87999799 31.40053482 -97.69921875 29.71484375 C-97.69921875 28.72484375 -97.69921875 27.73484375 -97.69921875 26.71484375 C-85.92477902 21.7198419 -73.89515438 17.68801623 -61.73120117 13.75585938 C-58.53313572 12.7217689 -55.33768842 11.67989979 -52.14257812 10.63671875 C-46.98529641 8.95680491 -41.82156759 7.29825137 -36.65240479 5.65527344 C-34.70446023 5.03495868 -32.75776845 4.41069421 -30.81243896 3.78222656 C-28.11590575 2.91326731 -25.41447941 2.06170599 -22.7109375 1.21484375 C-21.92805862 0.95944824 -21.14517975 0.70405273 -20.33857727 0.44091797 C-13.59166686 -1.63543328 -6.77771383 -2.433733 0 0 Z " fill="#FB6934" transform="translate(116.69921875,457.28515625)"/>
<path d="M0 0 C0.99 0 1.98 0 3 0 C-0.83157382 8.62605623 -8.59652869 15.76175729 -14.8828125 22.66796875 C-16.78051169 24.75823889 -18.64733415 26.86986115 -20.5 29 C-23.83190648 32.82211801 -27.21214176 36.59837591 -30.6171875 40.35546875 C-32.24101695 42.15765324 -33.84987257 43.97341635 -35.4453125 45.80078125 C-36.67894531 47.19876953 -36.67894531 47.19876953 -37.9375 48.625 C-39.03384766 49.88183594 -39.03384766 49.88183594 -40.15234375 51.1640625 C-48.11965877 59.39624836 -56.40911049 63.85440728 -67.125 67.6875 C-69.86352871 68.69809911 -72.59745269 69.72095691 -75.33203125 70.7421875 C-76.03384018 71.00209976 -76.73564911 71.26201202 -77.45872498 71.52980042 C-82.70740727 73.48305194 -87.89824171 75.55736193 -93.07421875 77.6953125 C-93.81019287 77.99885147 -94.54616699 78.30239044 -95.30444336 78.61512756 C-98.18618213 79.80600252 -101.06660451 80.99977028 -103.94219971 82.20541382 C-105.92366796 83.03540963 -107.9087076 83.85627366 -109.89453125 84.67578125 C-111.02737549 85.14927002 -112.16021973 85.62275879 -113.32739258 86.1105957 C-116 87 -116 87 -118 86 C-117.64808594 85.56768066 -117.29617188 85.13536133 -116.93359375 84.68994141 C-115.28863617 82.66864072 -113.64423344 80.64688979 -112 78.625 C-111.1030542 77.52224731 -111.1030542 77.52224731 -110.18798828 76.3972168 C-107.06300366 72.55163456 -103.95322426 68.69569922 -100.875 64.8125 C-96.4575665 59.27436455 -91.87698335 53.87720651 -87.2734375 48.49365234 C-86.1132473 47.13283109 -84.96235792 45.76409416 -83.8125 44.39453125 C-83.19375 43.66621094 -82.575 42.93789063 -81.9375 42.1875 C-81.41027344 41.56230469 -80.88304687 40.93710937 -80.33984375 40.29296875 C-79 39 -79 39 -77 39 C-77 38.34 -77 37.68 -77 37 C-75.171875 35.2734375 -75.171875 35.2734375 -72.75 33.375 C-71.96109375 32.74335938 -71.1721875 32.11171875 -70.359375 31.4609375 C-68 30 -68 30 -64 30 C-64 29.34 -64 28.68 -64 28 C-63.3915625 27.79246094 -62.783125 27.58492188 -62.15625 27.37109375 C-50.40431649 23.24063477 -39.13510903 18.01097291 -27.85546875 12.75 C-21.49210464 9.82806518 -15.03998167 7.09865975 -8.60522461 4.33862305 C-7.15321655 3.71274292 -7.15321655 3.71274292 -5.671875 3.07421875 C-4.7962793 2.69869873 -3.92068359 2.32317871 -3.01855469 1.9362793 C-1.04841278 1.16305566 -1.04841278 1.16305566 0 0 Z " fill="#FA6833" transform="translate(487,424)"/>
<path d="M0 0 C0.66 0.33 1.32 0.66 2 1 C-3.94 6.94 -9.88 12.88 -16 19 C-16.66 18.67 -17.32 18.34 -18 18 C-6.66287016 5.33029613 -6.66287016 5.33029613 0 0 Z " fill="#D5592C" transform="translate(104,22)"/>
<path d="M0 0 C0.66 0.33 1.32 0.66 2 1 C-1.63 4.63 -5.26 8.26 -9 12 C-9.66 11.67 -10.32 11.34 -11 11 C-7.6189962 6.86378916 -4.33409466 3.18683431 0 0 Z " fill="#D3582B" transform="translate(128,125)"/>
</svg>
